<svg width="24" height="24" viewBox="0 0 24 24" fill="none" xmlns="http://www.w3.org/2000/svg">
<path d="M16.9949 2H7.00509C4.24522 2 2 4.34495 2 7.22741V16.7726C2 19.6551 4.24522 22 7.00509 22H16.9949C19.7548 22 22 19.6551 22 16.7726V7.22741C22 4.34495 19.7548 2 16.9949 2ZM3.76564 7.22741C3.76564 5.36208 5.21909 3.84406 7.00509 3.84406H16.9949C18.7809 3.84406 20.2344 5.36208 20.2344 7.22741V16.7726C20.2344 18.6379 18.7809 20.1559 16.9949 20.1559H7.00509C5.21909 20.1559 3.76564 18.6379 3.76564 16.7726V7.22741Z" fill="white"/>
<path d="M12 16.8595C14.5664 16.8595 16.6556 14.6788 16.6556 11.9971C16.6556 9.31551 14.5676 7.13477 12 7.13477C9.43239 7.13477 7.34439 9.31551 7.34439 11.9971C7.34439 14.6788 9.43239 16.8595 12 16.8595ZM12 8.98001C13.5937 8.98001 14.8899 10.3338 14.8899 11.9983C14.8899 13.6628 13.5937 15.0166 12 15.0166C10.4063 15.0166 9.11003 13.6628 9.11003 11.9983C9.11003 10.3338 10.4063 8.98001 12 8.98001Z" fill="white"/>
<path d="M17.0865 7.92197C17.7776 7.92197 18.3409 7.33484 18.3409 6.61186C18.3409 5.88888 17.7787 5.30176 17.0865 5.30176C16.3943 5.30176 15.8321 5.88888 15.8321 6.61186C15.8321 7.33484 16.3943 7.92197 17.0865 7.92197Z" fill="white"/>
</svg>
