<svg xmlns="http://www.w3.org/2000/svg" width="20" height="20" viewBox="0 0 20 20" fill="none">
<path d="M2.24846 4.96636C1.85816 4.59905 1.66406 4.1444 1.66406 3.60343C1.66406 3.06247 1.8592 2.58781 2.24846 2.21945C2.63876 1.85215 3.14118 1.66797 3.75673 1.66797C4.37229 1.66797 4.85498 1.85215 5.24424 2.21945C5.63454 2.58676 5.82864 3.04879 5.82864 3.60343C5.82864 4.15808 5.63351 4.59905 5.24424 4.96636C4.85394 5.33366 4.35879 5.51784 3.75673 5.51784C3.15467 5.51784 2.63876 5.33366 2.24846 4.96636ZM5.50063 7.07337V18.3346H1.99103V7.07337H5.50063Z" fill="#ffffff"/>
<path d="M17.1837 8.18563C17.9487 9.0276 18.3307 10.1832 18.3307 11.6545V18.1355H14.9976V12.1113C14.9976 11.3693 14.8077 10.7926 14.4288 10.3821C14.0499 9.97165 13.5392 9.76537 12.8998 9.76537C12.2603 9.76537 11.7496 9.9706 11.3707 10.3821C10.9918 10.7926 10.8019 11.3693 10.8019 12.1113V18.1355H7.44905V7.04162H10.8019V8.51295C11.1413 8.0225 11.5991 7.63521 12.1742 7.34999C12.7493 7.06478 13.3959 6.92269 14.1153 6.92269C15.3962 6.92269 16.4197 7.34367 17.1837 8.18458V8.18563Z" fill="#ffffff"/>
</svg>